<?xml version="1.0" encoding="UTF-8"?>
<svg width="143.603861px" height="138px" viewBox="0 0 143.603861 138" version="1.1" xmlns="http://www.w3.org/2000/svg" xmlns:xlink="http://www.w3.org/1999/xlink">
    <title>9BHgGa01</title>
    <g id="Page-1" stroke="none" stroke-width="1" fill="none" fill-rule="evenodd">
        <g id="Apple-TV-Copy" transform="translate(-300.933143, -406.000000)" fill="#000000" fill-rule="nonzero">
            <g id="9BHgGa01" transform="translate(300.933143, 406.000000)">
                <g id="Group" transform="translate(71.801931, 69.000000) scale(-1, 1) rotate(-180.000000) translate(-71.801931, -69.000000) ">
                    <path d="M35.2058868,137.748706 C33.6240949,137.39472 32.5892778,136.834242 31.4214128,135.669039 C30.6970408,134.961067 30.297897,134.400589 29.8691871,133.530374 C29.3222123,132.365171 29.3074292,132.335672 29.3074292,130.506745 C29.2926461,129.017054 29.3517785,128.515574 29.5883082,127.925598 C30.1204998,126.524403 31.0666183,125.255954 32.1605678,124.429987 C32.9440722,123.84001 34.6736951,122.999294 35.1319713,122.984544 C35.678946,122.984544 36.4328842,122.247074 36.8911604,121.258863 C37.1572562,120.713135 37.4677013,120.07891 37.5859662,119.857669 C37.8668451,119.32669 37.8372789,119.002203 37.4824844,118.559721 L37.1720393,118.190986 L28.5682741,118.102489 C19.8462442,118.028742 19.6097145,118.013993 17.3183338,117.424016 C11.8042368,115.978574 7.33974014,112.777951 4.14659018,107.940144 C2.47609969,105.403245 1.21953605,101.907635 0.849958507,98.7070121 C0.761259897,97.9695415 0.687344389,95.7128815 0.672561287,93.692212 C0.672561287,91.2438096 0.61342888,89.8573649 0.495164067,89.5181284 C0.199502034,88.6921613 -0.303123423,44.2964309 0.243851339,43.7064544 L0.61342888,43.3082203 L0.687344389,23.897994 C0.746476795,10.9627596 0.820392304,4.29602529 0.923874015,3.95678881 C1.24910225,2.90958055 2.16565456,1.67062994 3.11177306,1.02165581 C4.59008323,0.00394637098 6.37883853,-0.276292459 7.99019661,0.284185201 C8.98066443,0.608672267 9.45372368,0.933159333 12.5138257,3.29306527 C15.1895671,5.35798296 17.7174775,7.31965477 20.2158217,9.23707835 C21.3097712,10.0777948 22.3298052,10.8742631 22.4924194,11.0070078 C22.6550335,11.1545019 23.0541772,11.4642396 23.3794055,11.7002302 C23.7046337,11.9362208 24.0002957,12.1722114 24.044645,12.231209 C24.0889943,12.2754572 25.1090283,13.0571761 26.3064596,13.9568902 L28.4943586,15.6088244 L38.724265,15.6088244 C49.7228926,15.6088244 49.8263743,15.6235738 51.0238056,16.3757938 C52.5168988,17.3345056 53.270837,18.8241962 53.1377891,20.5793762 C53.0195243,22.1870622 51.8960086,23.7947481 50.4324815,24.4437222 C49.7376757,24.7534599 49.5898447,24.7534599 38.4877354,24.7534599 C25.8334003,24.7534599 26.7056033,24.8272069 24.044645,23.6030057 C23.5272365,23.3670151 19.9201597,20.712121 17.4661648,18.779948 C16.7417928,18.2047209 15.455663,17.2017609 14.6130262,16.5527867 C13.7703894,15.918562 12.410344,14.8713538 11.5972734,14.2518785 C10.7842028,13.6176537 10.0598308,13.1456726 9.98591534,13.1899208 C9.91199983,13.234169 9.85286742,31.4644424 9.85286742,55.181497 C9.86765053,95.5948862 9.86765053,97.1435745 10.1337464,98.4267733 C10.4737577,100.00496 10.6215887,100.462192 11.3016114,101.819138 C12.2477299,103.721812 13.3712456,105.064009 15.1008685,106.332458 C16.7861421,107.556659 17.6583451,107.984392 19.7279793,108.54487 C20.8071458,108.839858 21.3393374,108.839858 71.7940634,108.839858 C122.219223,108.839858 122.780981,108.825109 123.860147,108.54487 C125.870649,107.999142 126.742852,107.586158 128.383777,106.420955 C130.009918,105.255751 131.54736,103.426824 132.375214,101.671644 C132.951755,100.432693 133.143935,99.9607122 133.143935,99.7099722 C133.143935,99.5772275 133.247417,99.1789933 133.365682,98.8250074 C133.557862,98.2792792 133.587428,94.2231909 133.587428,66.4795467 C133.587428,35.2845401 133.587428,34.7535613 133.291766,33.6473554 C132.848273,31.951173 132.700442,31.5676883 131.916938,30.2254918 C131.11865,28.8685458 128.502041,26.080907 128.014199,26.080907 C127.96985,26.080907 127.807236,25.9924105 127.688971,25.8744152 C126.964599,25.2549399 125.471506,24.650214 123.313173,24.1044857 C122.307922,23.8537457 122.854897,23.8537457 98.7436578,23.8684951 L83.6353279,23.8684951 L83.07357,24.4437222 C82.7631249,24.7534599 82.0831022,25.4909305 81.5656936,26.080907 C80.028251,27.7918388 78.6829888,28.6915529 76.5837884,29.3552764 C75.1202613,29.8125082 71.9862437,29.8125082 70.6853308,29.3700259 C68.6600459,28.6473047 67.5660963,28.0130799 66.3834482,26.8626258 C62.8059376,23.4112634 62.0519994,18.278468 64.5059943,13.9716396 C65.7329917,11.8034761 68.1278542,9.93030071 70.6705477,9.16333128 C71.8236296,8.79459598 75.0463458,8.73559833 76.1550784,9.04533599 C78.7569043,9.76805718 80.5900089,11.0217572 82.1422346,13.1014243 C82.5561614,13.6471526 83.0440038,14.2076302 83.2361841,14.3403749 C83.5614123,14.5468667 85.7049621,14.5763655 103.237721,14.6206138 C120.504383,14.664862 123.032294,14.6943608 124.200159,14.915602 C125.841083,15.1958408 127.053297,15.5203279 128.117681,15.918562 C128.561174,16.0808056 129.093365,16.2725479 129.300329,16.346295 C130.423845,16.7002809 133.661344,18.6177044 134.770077,19.5911656 C139.323272,23.5587575 141.55552,27.4526023 142.60512,33.2343718 C142.856433,34.6060672 142.900782,35.5057813 142.900782,38.9718931 L142.900782,43.0869791 C143.610371,73.3331069 143.782841,88.6429966 143.418191,89.0166484 L142.900782,89.5476272 L142.900782,93.6774626 C142.900782,96.7453403 142.84165,98.1907827 142.664253,99.2232416 C142.265109,101.730642 141.703351,103.559569 140.727667,105.580238 C138.554551,110.093558 134.991823,113.662916 130.423845,115.890077 C128.35421,116.907787 126.535889,117.468264 123.963629,117.881248 C122.795764,118.07299 121.066141,118.117238 113.985036,118.117238 L105.396054,118.117238 L105.085608,118.456475 C104.612549,118.957955 104.686465,119.444686 105.42562,120.993374 C105.957811,122.070081 106.209124,122.438816 106.623051,122.674807 C106.90393,122.8518 107.229158,122.984544 107.347423,122.984544 C107.569169,122.984544 108.278758,123.264783 109.328359,123.781013 C110.200562,124.193996 111.501475,125.403448 112.092799,126.317912 C112.935435,127.61586 113.186748,128.589321 113.186748,130.432998 C113.186748,132.040683 113.024134,132.748655 112.418027,133.899109 C110.348393,137.822453 105.336921,139.120401 101.582013,136.686748 C100.916774,136.244266 99.6602101,135.005315 99.364548,134.474336 C98.640176,133.205887 98.1079844,131.450707 98.1079844,130.374 C98.1227675,129.474286 98.5810436,127.807602 99.068886,126.893139 C99.5419453,126.022923 99.6306439,124.651228 99.2610663,123.943256 C99.1428015,123.692516 98.9358381,123.264783 98.8027902,122.984544 C98.6845254,122.704306 98.3740802,122.025833 98.1227675,121.465355 C97.8714548,120.919627 97.6644913,120.432896 97.6644913,120.359149 C97.6644913,120.019913 96.3487953,118.795711 95.6539895,118.471224 L94.8704851,118.117238 L71.2323056,118.117238 C57.7599722,118.215568 51.0238056,118.363062 51.0238056,118.559721 C51.0238056,118.692466 44.4748915,121.258863 43.528773,123.250034 C42.8930997,124.577481 42.8635335,125.949176 43.4548575,127.011134 C44.548807,128.958056 44.548807,131.598201 43.4696406,133.825362 C43.0113645,134.754575 41.5774036,136.347512 40.8234654,136.745746 C39.6260342,137.365221 39.019927,137.601212 38.0146761,137.807704 C36.6989801,138.073193 36.6989801,138.073193 35.2058868,137.748706 Z" id="Path"></path>
                    <path d="M40.3060569,81.8336847 C36.2998363,81.3322047 32.3527482,78.4708187 30.4309449,74.6654704 C28.0804318,70.0636538 28.5387079,64.7833643 31.6431593,60.5207842 C32.7075426,59.0605924 34.9545741,57.2464147 36.6102814,56.5089441 C38.0294592,55.8747194 38.3990367,55.7272253 38.6503495,55.7272253 C38.7833974,55.7272253 39.167758,55.6239794 39.4929863,55.5059841 C40.4243217,55.181497 44.2235788,55.2109959 45.554058,55.5649817 C47.741957,56.1697076 48.7915572,56.6711877 50.5211801,57.9543865 C53.8917273,60.4912854 55.8283136,64.3851302 55.8283136,68.6329609 C55.8135305,72.8217939 53.8030287,76.8188846 50.4324815,79.3557835 C49.4272306,80.1080035 47.3871626,81.1404623 46.2045144,81.4796988 C44.6522888,81.9221812 42.213077,82.0696753 40.3060569,81.8336847 Z M44.1496633,74.9309598 C46.3671285,74.2377375 47.6828246,72.9840374 48.6585093,70.6683797 C49.0133037,69.8424127 49.0133037,67.4235091 48.6585093,66.4942961 C48.1411007,65.1078514 47.446295,64.1786384 46.293213,63.3231725 C44.829686,62.2169666 42.6713531,61.7597348 40.9712964,62.2022172 C38.9903608,62.7036972 37.5268337,63.8541513 36.5067997,65.6978279 L35.959825,66.7155373 L35.959825,68.5592138 C35.959825,70.3291433 35.9746081,70.4323891 36.4328842,71.3763515 C36.9207266,72.3793115 37.9111944,73.5002669 38.8425298,74.1197422 C40.3651893,75.1227022 42.508739,75.4471893 44.1496633,74.9309598 Z" id="Shape"></path>
                    <path d="M99.1428015,81.8484341 C97.620142,81.6419423 95.4913754,80.8897223 94.3382935,80.1670011 C93.6287046,79.7245188 91.7956,78.2938258 91.4408055,77.9103411 C90.5981687,76.9811281 89.5781347,75.4914375 89.1198586,74.5327257 C88.2920049,72.7775457 87.9224273,71.4058503 87.8189456,69.5769232 C87.6267653,66.3615514 88.2772218,63.8541513 90.0807602,60.9927654 C90.5686025,60.225796 92.7121523,58.0723818 93.5252229,57.5561524 C95.1217979,56.5384429 96.1713981,56.0812112 98.0340689,55.5649817 C99.512379,55.1667476 102.927276,55.181497 104.390803,55.5797312 C106.963062,56.2877029 108.796167,57.3054124 110.511007,59.0015948 C112.521509,60.978016 113.467627,62.6152007 114.236348,65.4618373 C114.665058,67.0105255 114.665058,70.2258974 114.251131,71.8040845 C113.571109,74.3409834 112.462376,76.2289081 110.555356,78.1315823 C108.825733,79.8425141 107.036978,80.8897223 104.716031,81.5386965 C103.444684,81.8779329 100.591545,82.0401765 99.1428015,81.8484341 Z M103.444684,74.7687163 C104.982127,74.1787398 106.416088,72.8807916 107.110893,71.4353492 C107.436122,70.7716256 107.864831,69.0901926 107.864831,68.5444644 C107.850048,67.9102397 107.317857,66.1403102 106.90393,65.3880902 C106.076076,63.913149 104.523851,62.7036972 102.838577,62.2612148 C100.561979,61.6564889 98.3297309,62.2612148 96.6296742,63.9573972 C94.7522203,65.845322 94.1165469,68.1167314 94.8409189,70.4028903 C95.284412,71.7598362 95.5652909,72.2465668 96.5409756,73.220028 C97.4279617,74.0902433 98.1079844,74.5032269 99.4384635,74.9604587 C100.369799,75.2849457 102.365518,75.1964493 103.444684,74.7687163 Z" id="Shape"></path>
                </g>
            </g>
        </g>
    </g>
</svg>